<svg width="800" height="800" viewBox="0 0 200 200" xmlns="http://www.w3.org/2000/svg">
  <!-- 
    PAW Hybrid Identity - Final Professional Revision
    Left: Structural Heart (Empathy/Protection)
    Right: Anatomical Paw (Connection/Identity)
  -->
  <defs>
    <linearGradient id="mainGradient" x1="0%" y1="0%" x2="100%" y2="100%">
      <stop offset="0%" style="stop-color:#3A86FF;stop-opacity:1" />
      <stop offset="100%" style="stop-color:#00F5D4;stop-opacity:1" />
    </linearGradient>
    <filter id="glow" x="-20%" y="-20%" width="140%" height="140%">
      <feGaussianBlur stdDeviation="3" result="blur" />
      <feComposite in="SourceGraphic" in2="blur" operator="over" />
    </filter>
  </defs>

  <!-- Background for context (optional in SVG, but good for preview) -->
  <rect width="200" height="200" fill="none" />

  <g transform="translate(0, -10)">
    <!-- 
      The Main Hybrid Shape 
      United at the center axis (x=100)
    -->
    <g fill="none" stroke-width="7" stroke-linecap="round" stroke-linejoin="round">
      
      <!-- LEFT SIDE: Half Heart -->
      <path d="M 100,165 
               C 40,135 15,100 15,65 
               15,35 45,20 70,35
               C 85,45 95,60 100,75" 
            stroke="#3A86FF" />

      <!-- RIGHT SIDE: Half Paw Pad -->
      <!-- We make it slightly wider and more 'lobed' than a heart to represent the paw pad -->
      <path d="M 100,165
               C 160,160 185,135 185,100
               C 185,80 165,75 140,80
               C 120,85 105,85 100,75" 
            stroke="#00F5D4" />
      
      <!-- PAW TOES (Right Side Only) -->
      <!-- Precisely placed to complete the paw look without breaking the silhouette -->
      <circle cx="130" cy="35" r="9" stroke="#00F5D4" stroke-width="6" />
      <circle cx="170" cy="60" r="9" stroke="#00F5D4" stroke-width="6" opacity="0.7" />
    </g>

    <!-- Center Bridge (Visual Connection) -->
    <line x1="100" y1="75" x2="100" y2="165" stroke="url(#mainGradient)" stroke-width="1" stroke-dasharray="4 4" opacity="0.2" />
  </g>

  <!-- Typography -->
  <g transform="translate(100, 185)">
    <text font-family="Inter, sans-serif" font-size="28" text-anchor="middle" fill="#FFFFFF" font-weight="900" letter-spacing="4">PAW</text>
    <text y="15" font-family="Inter, sans-serif" font-size="7" text-anchor="middle" fill="#94A3B8" font-weight="400" letter-spacing="3" text-transform="uppercase">The Digital Health Protocol</text>
  </g>
</svg>
