<svg width="800" height="800" viewBox="0 0 200 200" xmlns="http://www.w3.org/2000/svg">
  <!-- 
    PAW Ultra-Professional Logo
    Architecture: Precision Geometry
    Rules: No overlaps, consistent stroke, balanced negative space
  -->
  <g transform="translate(0, 5)">
    <!-- Main Symmetrical Base (Heart-Paw Hybrid) -->
    <g fill="none" stroke="#1E293B" stroke-width="7" stroke-linecap="round" stroke-linejoin="round">
      
      <!-- LEFT: Precision Heart Lobe -->
      <path d="M 100,160 
               C 40,140 20,110 20,70 
               20,40 50,30 75,45
               C 88,52 95,65 100,80" />

      <!-- RIGHT: Precision Paw Pad Lobe (Same height/start/end as heart) -->
      <path d="M 100,160 
               C 160,140 180,110 180,70 
               180,40 150,30 125,45
               C 112,52 105,65 100,80" />
      
      <!-- 
        CLAW CROWN (4 Pill-Shaped Elements)
        Placed with mathematical spacing, NO overlaps with the base.
      -->
      <!-- Toe 1 (Far Left) -->
      <path d="M 35,45 A 10,10 0 0 1 50,25" />
      <!-- Toe 2 (Mid Left) -->
      <path d="M 75,25 A 12,12 0 0 1 95,15" />
      <!-- Toe 3 (Mid Right) -->
      <path d="M 105,15 A 12,12 0 0 1 125,25" />
      <!-- Toe 4 (Far Right) -->
      <path d="M 150,25 A 10,10 0 0 1 165,45" />
    </g>

    <!-- Subtle Vertical Separation (Negative Space Tech Look) -->
    <line x1="100" y1="85" x2="100" y2="155" stroke="#F1F5F9" stroke-width="2" opacity="0.5" />
  </g>

  <!-- Typography: High-End Minimalist -->
  <text x="100" y="192" font-family="Inter, -apple-system, sans-serif" font-size="24" text-anchor="middle" fill="#1E293B" font-weight="900" letter-spacing="10">PAW</text>
</svg>
